<svg width="91" height="91" viewBox="0 0 91 91" fill="none" xmlns="http://www.w3.org/2000/svg">
<g id="&#240;&#159;&#166;&#134; icon &#34;arrow left&#34;">
<path id="Vector" d="M51.2956 68.1926C49.5025 68.1947 47.7633 67.5793 46.3706 66.4499L27.0494 50.5004C26.2918 49.8972 25.6799 49.1309 25.2593 48.2586C24.8388 47.3862 24.6204 46.4302 24.6204 45.4618C24.6204 44.4933 24.8388 43.5373 25.2593 42.665C25.6799 41.7926 26.2918 41.0263 27.0494 40.4231L46.3706 24.4737C47.5338 23.5417 48.9354 22.9552 50.4157 22.7811C51.896 22.6069 53.3954 22.8521 54.7431 23.4887C55.9144 24.005 56.9123 24.8475 57.6177 25.9156C58.3231 26.9838 58.7061 28.2324 58.721 29.5123V61.4112C58.7061 62.6912 58.3231 63.9398 57.6177 65.0079C56.9123 66.076 55.9144 66.9186 54.7431 67.4349C53.6601 67.9274 52.4853 68.1856 51.2956 68.1926Z" fill="#231F20"/>
</g>
</svg>
