<svg width="82" height="91" viewBox="0 0 82 91" fill="none" xmlns="http://www.w3.org/2000/svg">
<g id="&#240;&#159;&#166;&#134; icon &#34;arrow right&#34;">
<path id="Vector" d="M39.6273 68.1926C38.4376 68.1856 37.2628 67.9274 36.1798 67.4349C35.0085 66.9186 34.0106 66.076 33.3052 65.0079C32.5998 63.9398 32.2168 62.6912 32.2019 61.4112V29.5123C32.2168 28.2324 32.5998 26.9838 33.3052 25.9156C34.0106 24.8475 35.0085 24.005 36.1798 23.4887C37.5275 22.8521 39.0269 22.6069 40.5072 22.7811C41.9875 22.9552 43.3891 23.5417 44.5523 24.4737L63.8735 40.4231C64.6311 41.0263 65.243 41.7926 65.6636 42.665C66.0841 43.5373 66.3026 44.4933 66.3026 45.4618C66.3026 46.4302 66.0841 47.3862 65.6636 48.2586C65.243 49.1309 64.6311 49.8972 63.8735 50.5004L44.5523 66.4499C43.1596 67.5793 41.4204 68.1947 39.6273 68.1926Z" fill="#231F20"/>
</g>
</svg>
